<mxfile host="Electron" agent="Mozilla/5.0 (Windows NT 10.0; Win64; x64) AppleWebKit/537.36 (KHTML, like Gecko) draw.io/24.7.17 Chrome/128.0.6613.36 Electron/32.0.1 Safari/537.36" version="24.7.17">
  <diagram name="Page-1" id="66RDFDrj0NTtvc8KaUhG">
    <mxGraphModel dx="1750" dy="1092" grid="1" gridSize="10" guides="1" tooltips="1" connect="1" arrows="1" fold="1" page="1" pageScale="1" pageWidth="850" pageHeight="1100" math="0" shadow="0">
      <root>
        <mxCell id="0" />
        <mxCell id="1" parent="0" />
        <mxCell id="VpxfTvKx0PquKVgnu9S3-45" value="" style="rounded=0;whiteSpace=wrap;html=1;fillColor=none;fontSize=20;" vertex="1" parent="1">
          <mxGeometry x="760" y="250" width="180" height="760" as="geometry" />
        </mxCell>
        <mxCell id="VpxfTvKx0PquKVgnu9S3-44" value="" style="rounded=0;whiteSpace=wrap;html=1;fillColor=none;fontSize=20;" vertex="1" parent="1">
          <mxGeometry x="300" y="250" width="180" height="760" as="geometry" />
        </mxCell>
        <mxCell id="VpxfTvKx0PquKVgnu9S3-1" value="" style="rounded=0;whiteSpace=wrap;html=1;fillColor=none;dashed=1;dashPattern=8 8;strokeColor=#737373;" vertex="1" parent="1">
          <mxGeometry x="60" y="160" width="140" height="510" as="geometry" />
        </mxCell>
        <mxCell id="VpxfTvKx0PquKVgnu9S3-2" value="&lt;font style=&quot;font-size: 24px;&quot;&gt;Sources&lt;/font&gt;" style="rounded=0;whiteSpace=wrap;html=1;strokeColor=none;" vertex="1" parent="1">
          <mxGeometry x="70" y="140" width="120" height="40" as="geometry" />
        </mxCell>
        <mxCell id="VpxfTvKx0PquKVgnu9S3-3" value="" style="rounded=0;whiteSpace=wrap;html=1;fillColor=none;dashed=1;dashPattern=8 8;strokeColor=#737373;" vertex="1" parent="1">
          <mxGeometry x="270" y="150" width="720" height="910" as="geometry" />
        </mxCell>
        <mxCell id="VpxfTvKx0PquKVgnu9S3-4" value="&lt;font style=&quot;font-size: 24px;&quot;&gt;Data Warehouse&lt;/font&gt;" style="rounded=0;whiteSpace=wrap;html=1;strokeColor=none;" vertex="1" parent="1">
          <mxGeometry x="482" y="130" width="190" height="40" as="geometry" />
        </mxCell>
        <mxCell id="VpxfTvKx0PquKVgnu9S3-5" value="" style="rounded=0;whiteSpace=wrap;html=1;fillColor=none;dashed=1;dashPattern=8 8;strokeColor=#737373;" vertex="1" parent="1">
          <mxGeometry x="1080" y="157.5" width="140" height="490" as="geometry" />
        </mxCell>
        <mxCell id="VpxfTvKx0PquKVgnu9S3-6" value="&lt;font style=&quot;font-size: 24px;&quot;&gt;Consumer&lt;/font&gt;" style="rounded=0;whiteSpace=wrap;html=1;strokeColor=none;" vertex="1" parent="1">
          <mxGeometry x="1090" y="130" width="120" height="40" as="geometry" />
        </mxCell>
        <mxCell id="VpxfTvKx0PquKVgnu9S3-7" value="Bronze Layer" style="rounded=0;whiteSpace=wrap;html=1;fillColor=#A68D42;fontSize=20;" vertex="1" parent="1">
          <mxGeometry x="330" y="200" width="150" height="40" as="geometry" />
        </mxCell>
        <mxCell id="VpxfTvKx0PquKVgnu9S3-9" value="Silver Layer" style="rounded=0;whiteSpace=wrap;html=1;fillColor=#B3B3B3;fontSize=20;" vertex="1" parent="1">
          <mxGeometry x="540" y="200" width="150" height="40" as="geometry" />
        </mxCell>
        <mxCell id="VpxfTvKx0PquKVgnu9S3-10" value="" style="rounded=0;whiteSpace=wrap;html=1;fillColor=none;fontSize=20;" vertex="1" parent="1">
          <mxGeometry x="540" y="250" width="180" height="760" as="geometry" />
        </mxCell>
        <mxCell id="VpxfTvKx0PquKVgnu9S3-11" value="Gold Layer" style="rounded=0;whiteSpace=wrap;html=1;fillColor=#FFD965;fontSize=20;" vertex="1" parent="1">
          <mxGeometry x="760" y="200" width="150" height="40" as="geometry" />
        </mxCell>
        <mxCell id="VpxfTvKx0PquKVgnu9S3-18" value="Object Type: CSV Files&lt;div&gt;Interface: Files in Folder&lt;/div&gt;" style="rounded=0;whiteSpace=wrap;html=1;" vertex="1" parent="1">
          <mxGeometry x="60" y="520" width="140" height="60" as="geometry" />
        </mxCell>
        <mxCell id="VpxfTvKx0PquKVgnu9S3-19" value="" style="group" vertex="1" connectable="0" parent="1">
          <mxGeometry x="93" y="280" width="74" height="70" as="geometry" />
        </mxCell>
        <mxCell id="VpxfTvKx0PquKVgnu9S3-14" value="CRM" style="image;aspect=fixed;html=1;points=[];align=center;fontSize=12;image=img/lib/azure2/general/Folder_Blank.svg;" vertex="1" parent="VpxfTvKx0PquKVgnu9S3-19">
          <mxGeometry width="69" height="56.00000000000001" as="geometry" />
        </mxCell>
        <mxCell id="VpxfTvKx0PquKVgnu9S3-15" value="" style="whiteSpace=wrap;html=1;shape=mxgraph.basic.document" vertex="1" parent="VpxfTvKx0PquKVgnu9S3-19">
          <mxGeometry x="44" y="40" width="30" height="30" as="geometry" />
        </mxCell>
        <mxCell id="VpxfTvKx0PquKVgnu9S3-20" value="" style="group" vertex="1" connectable="0" parent="1">
          <mxGeometry x="93" y="400" width="74" height="70" as="geometry" />
        </mxCell>
        <mxCell id="VpxfTvKx0PquKVgnu9S3-16" value="ERP" style="image;aspect=fixed;html=1;points=[];align=center;fontSize=12;image=img/lib/azure2/general/Folder_Blank.svg;" vertex="1" parent="VpxfTvKx0PquKVgnu9S3-20">
          <mxGeometry width="69" height="56.00000000000001" as="geometry" />
        </mxCell>
        <mxCell id="VpxfTvKx0PquKVgnu9S3-17" value="" style="whiteSpace=wrap;html=1;shape=mxgraph.basic.document" vertex="1" parent="VpxfTvKx0PquKVgnu9S3-20">
          <mxGeometry x="54" y="40" width="20" height="30" as="geometry" />
        </mxCell>
        <mxCell id="VpxfTvKx0PquKVgnu9S3-21" value="Raw Data" style="image;html=1;image=img/lib/clip_art/computers/Database_128x128.png" vertex="1" parent="1">
          <mxGeometry x="350" y="350" width="80" height="80" as="geometry" />
        </mxCell>
        <mxCell id="VpxfTvKx0PquKVgnu9S3-22" value="Cleaned Standardized Data" style="image;html=1;image=img/lib/clip_art/computers/Database_128x128.png" vertex="1" parent="1">
          <mxGeometry x="590" y="340" width="80" height="80" as="geometry" />
        </mxCell>
        <mxCell id="VpxfTvKx0PquKVgnu9S3-23" value="Business Ready Data" style="image;html=1;image=img/lib/clip_art/computers/Database_128x128.png" vertex="1" parent="1">
          <mxGeometry x="787" y="355" width="80" height="80" as="geometry" />
        </mxCell>
        <mxCell id="VpxfTvKx0PquKVgnu9S3-24" value="" style="shape=singleArrow;whiteSpace=wrap;html=1;arrowWidth=0.2666670057508687;arrowSize=0.43999999999999434;" vertex="1" parent="1">
          <mxGeometry x="490" y="375" width="50" height="60" as="geometry" />
        </mxCell>
        <mxCell id="VpxfTvKx0PquKVgnu9S3-25" value="" style="shape=singleArrow;whiteSpace=wrap;html=1;arrowWidth=0.29743464543269055;arrowSize=0.5333333333333337;" vertex="1" parent="1">
          <mxGeometry x="200" y="370" width="70" height="65" as="geometry" />
        </mxCell>
        <mxCell id="VpxfTvKx0PquKVgnu9S3-27" value="" style="shape=singleArrow;whiteSpace=wrap;html=1;arrowWidth=0.35555453830295203;arrowSize=0.4933329264322879;" vertex="1" parent="1">
          <mxGeometry x="710" y="375" width="50" height="60" as="geometry" />
        </mxCell>
        <mxCell id="VpxfTvKx0PquKVgnu9S3-28" value="&lt;div style=&quot;text-align: left;&quot;&gt;&lt;span style=&quot;background-color: initial;&quot;&gt;Object Type: Table&lt;/span&gt;&lt;/div&gt;&lt;div style=&quot;text-align: left;&quot;&gt;Load&lt;/div&gt;&lt;div style=&quot;text-align: left;&quot;&gt;&lt;br&gt;&lt;/div&gt;&lt;div style=&quot;text-align: left;&quot;&gt;Load:&amp;nbsp;&lt;/div&gt;&lt;div&gt;&lt;ul&gt;&lt;li style=&quot;text-align: left;&quot;&gt;Batch Processing&lt;/li&gt;&lt;li style=&quot;text-align: left;&quot;&gt;Full Load( Trunc &amp;amp; Insert)&lt;/li&gt;&lt;/ul&gt;&lt;/div&gt;&lt;div&gt;&lt;br&gt;&lt;/div&gt;&lt;div style=&quot;text-align: left;&quot;&gt;No Transformations&lt;/div&gt;&lt;div style=&quot;text-align: left;&quot;&gt;&lt;br&gt;&lt;/div&gt;&lt;div style=&quot;text-align: left;&quot;&gt;Data Model: None&lt;/div&gt;&lt;div&gt;&lt;br&gt;&lt;/div&gt;" style="rounded=0;whiteSpace=wrap;html=1;" vertex="1" parent="1">
          <mxGeometry x="320" y="510" width="140" height="450" as="geometry" />
        </mxCell>
        <mxCell id="VpxfTvKx0PquKVgnu9S3-30" value="" style="shape=singleArrow;whiteSpace=wrap;html=1;arrowWidth=0.36666463216145645;arrowSize=0.4799987792968682;" vertex="1" parent="1">
          <mxGeometry x="1000" y="372.5" width="70" height="60" as="geometry" />
        </mxCell>
        <mxCell id="VpxfTvKx0PquKVgnu9S3-41" value="&lt;div style=&quot;text-align: left;&quot;&gt;&lt;span style=&quot;background-color: initial;&quot;&gt;Object Type: Table&lt;/span&gt;&lt;/div&gt;&lt;div style=&quot;text-align: left;&quot;&gt;Load&lt;/div&gt;&lt;div style=&quot;text-align: left;&quot;&gt;&lt;br&gt;&lt;/div&gt;&lt;div style=&quot;text-align: left;&quot;&gt;Load:&amp;nbsp;&lt;/div&gt;&lt;div&gt;&lt;ul&gt;&lt;li style=&quot;text-align: left;&quot;&gt;Batch Processing&lt;/li&gt;&lt;li style=&quot;text-align: left;&quot;&gt;Full Load( Trunc &amp;amp; Insert)&lt;/li&gt;&lt;/ul&gt;&lt;/div&gt;&lt;div&gt;&lt;br&gt;&lt;/div&gt;&lt;div style=&quot;text-align: left;&quot;&gt;Transformations:&lt;/div&gt;&lt;div style=&quot;text-align: left;&quot;&gt;&lt;ul&gt;&lt;li&gt;Data Cleaning&lt;/li&gt;&lt;li&gt;Data Standardization&lt;/li&gt;&lt;li&gt;Data Normalization&lt;/li&gt;&lt;li&gt;Derived Columns&lt;/li&gt;&lt;li&gt;Data Enrichment&lt;/li&gt;&lt;/ul&gt;&lt;/div&gt;&lt;div style=&quot;text-align: left;&quot;&gt;&lt;br&gt;&lt;/div&gt;&lt;div style=&quot;text-align: left;&quot;&gt;Data Model: None&lt;/div&gt;&lt;div&gt;&lt;br&gt;&lt;/div&gt;" style="rounded=0;whiteSpace=wrap;html=1;" vertex="1" parent="1">
          <mxGeometry x="560" y="510" width="140" height="440" as="geometry" />
        </mxCell>
        <mxCell id="VpxfTvKx0PquKVgnu9S3-43" value="&lt;div style=&quot;text-align: left;&quot;&gt;&lt;span style=&quot;background-color: initial;&quot;&gt;Object Type: Views&lt;/span&gt;&lt;/div&gt;&lt;div style=&quot;text-align: left;&quot;&gt;&lt;br&gt;&lt;/div&gt;&lt;div style=&quot;text-align: left;&quot;&gt;No Load&lt;/div&gt;&lt;div style=&quot;text-align: left;&quot;&gt;&lt;br&gt;&lt;/div&gt;&lt;div style=&quot;text-align: left;&quot;&gt;Transformations:&lt;/div&gt;&lt;div style=&quot;text-align: left;&quot;&gt;&lt;ul&gt;&lt;li&gt;Data Integrations&lt;/li&gt;&lt;li&gt;Aggregations&lt;/li&gt;&lt;li&gt;Business Logics&lt;/li&gt;&lt;/ul&gt;&lt;/div&gt;&lt;div style=&quot;text-align: left;&quot;&gt;&lt;br&gt;&lt;/div&gt;&lt;div style=&quot;text-align: left;&quot;&gt;Data Model:&lt;/div&gt;&lt;div style=&quot;text-align: left;&quot;&gt;&lt;ul&gt;&lt;li&gt;Star Schema&lt;/li&gt;&lt;li&gt;Flat Table&lt;/li&gt;&lt;li&gt;Aggregated Table&lt;/li&gt;&lt;/ul&gt;&lt;/div&gt;&lt;div&gt;&lt;br&gt;&lt;/div&gt;" style="rounded=0;whiteSpace=wrap;html=1;" vertex="1" parent="1">
          <mxGeometry x="780" y="510" width="140" height="440" as="geometry" />
        </mxCell>
        <mxCell id="VpxfTvKx0PquKVgnu9S3-47" value="AD-Hoc SQL Queries" style="image;aspect=fixed;html=1;points=[];align=center;fontSize=12;image=img/lib/azure2/preview/Time_Series_Data_Sets.svg;" vertex="1" parent="1">
          <mxGeometry x="1127" y="355" width="48" height="64" as="geometry" />
        </mxCell>
        <mxCell id="VpxfTvKx0PquKVgnu9S3-51" value="Machine Leaning&lt;div&gt;&lt;br&gt;&lt;/div&gt;" style="sketch=0;points=[[0,0,0],[0.25,0,0],[0.5,0,0],[0.75,0,0],[1,0,0],[0,1,0],[0.25,1,0],[0.5,1,0],[0.75,1,0],[1,1,0],[0,0.25,0],[0,0.5,0],[0,0.75,0],[1,0.25,0],[1,0.5,0],[1,0.75,0]];outlineConnect=0;fontColor=default;fillColor=#01A88D;strokeColor=#ffffff;dashed=0;verticalLabelPosition=bottom;verticalAlign=top;align=center;html=1;fontSize=12;fontStyle=0;aspect=fixed;shape=mxgraph.aws4.resourceIcon;resIcon=mxgraph.aws4.bedrock;" vertex="1" parent="1">
          <mxGeometry x="1112" y="490" width="78" height="78" as="geometry" />
        </mxCell>
        <mxCell id="VpxfTvKx0PquKVgnu9S3-52" value="PowerBI &amp;amp; Reporting" style="verticalLabelPosition=bottom;sketch=0;aspect=fixed;html=1;verticalAlign=top;strokeColor=none;align=center;outlineConnect=0;shape=mxgraph.citrix.reporting;" vertex="1" parent="1">
          <mxGeometry x="1120" y="212" width="61.5" height="69" as="geometry" />
        </mxCell>
      </root>
    </mxGraphModel>
  </diagram>
</mxfile>
